<svg width="50" height="50" viewBox="0 0 50 50" fill="none" xmlns="http://www.w3.org/2000/svg">
<path opacity="0.8" d="M3.32883 10.6004C4.31035 3.83616 10.5895 -0.85164 17.3537 0.129878L39.3996 3.32883C46.1638 4.31035 50.8516 10.5895 49.8701 17.3537L46.6712 39.3996C45.6896 46.1638 39.4105 50.8516 32.6463 49.8701L10.6004 46.6712C3.83616 45.6896 -0.85164 39.4105 0.129878 32.6463L3.32883 10.6004Z" fill="#53B4C8"/>
<path d="M3.41309 15.7188C3.41309 8.88369 8.954 3.34277 15.7891 3.34277H34.2168C41.0519 3.34277 46.5928 8.88369 46.5928 15.7188V34.2827C46.5928 41.1178 41.0519 46.6587 34.2168 46.6587H15.7891C8.95401 46.6587 3.41309 41.1178 3.41309 34.2827V15.7188Z" fill="#14152F"/>
<mask id="mask0_161_154" style="mask-type:alpha" maskUnits="userSpaceOnUse" x="13" y="11" width="24" height="32">
<path fill-rule="evenodd" clip-rule="evenodd" d="M26.8225 13.725C26.8225 14.6913 26.0659 15.4808 25.1128 15.5336H26.4708V17.2032C29.8111 17.7623 32.5106 20.2129 33.4306 23.4162C33.6296 22.9178 34.1167 22.5656 34.6861 22.5656C35.4324 22.5656 36.0374 23.1706 36.0374 23.9169V27.745C36.0374 28.4913 35.4324 29.0963 34.6861 29.0963C34.1188 29.0963 33.6333 28.7468 33.4329 28.2514C32.8058 30.4425 31.3464 32.2821 29.4186 33.4062C30.62 34.4153 31.3676 35.8338 31.3676 37.405C31.3676 37.6356 31.3515 37.8629 31.3202 38.0862H18.724C18.6927 37.8629 18.6766 37.6356 18.6766 37.405C18.6766 35.8365 19.4217 34.4201 20.6195 33.4113C18.6772 32.2817 17.2092 30.4264 16.5867 28.2167C16.3953 28.7304 15.9004 29.0963 15.32 29.0963C14.5737 29.0963 13.9688 28.4913 13.9688 27.745V23.9169C13.9688 23.1706 14.5737 22.5656 15.32 22.5656C15.9026 22.5656 16.3991 22.9343 16.5889 23.4511C17.5965 19.8866 20.8052 17.2459 24.654 17.0899V15.5336H24.9094C23.9563 15.4808 23.1997 14.6913 23.1997 13.725C23.1997 12.7246 24.0107 11.9136 25.0111 11.9136C26.0115 11.9136 26.8225 12.7246 26.8225 13.725ZM24.9079 42.9496C24.9459 42.9502 24.984 42.9505 25.0221 42.9505C25.0603 42.9505 25.0983 42.9502 25.1363 42.9496H24.9079ZM30.3549 35.8838H19.6642L19.4434 36.528H30.6191L30.3549 35.8838ZM19.29 37.0117H30.7749L31.0588 37.6559H19.0527L19.29 37.0117ZM30.8661 23.3C30.9922 23.5657 31.0572 23.8504 31.0572 24.138H30.4597C30.4597 23.9189 30.4102 23.7019 30.3141 23.4995C30.218 23.2971 30.0771 23.1131 29.8996 22.9582C29.722 22.8033 29.5112 22.6804 29.2792 22.5966C29.0472 22.5127 28.7985 22.4696 28.5474 22.4696C28.2963 22.4696 28.0476 22.5127 27.8156 22.5966C27.5836 22.6804 27.3728 22.8033 27.1952 22.9582C27.0176 23.1131 26.8768 23.2971 26.7807 23.4995C26.6846 23.7019 26.6351 23.9189 26.6351 24.138H26.0376C26.0376 23.8504 26.1025 23.5657 26.2286 23.3C26.3548 23.0343 26.5396 22.7929 26.7727 22.5896C27.0058 22.3863 27.2824 22.225 27.5869 22.1149C27.8914 22.0049 28.2178 21.9482 28.5474 21.9482C28.877 21.9482 29.2033 22.0049 29.5078 22.1149C29.8123 22.225 30.089 22.3863 30.3221 22.5896C30.5551 22.7929 30.74 23.0343 30.8661 23.3ZM24.2587 24.138C24.2587 23.8504 24.1937 23.5657 24.0676 23.3C23.9415 23.0343 23.7566 22.7929 23.5236 22.5896C23.2905 22.3863 23.0138 22.225 22.7093 22.1149C22.4048 22.0049 22.0785 21.9482 21.7489 21.9482C21.4193 21.9482 21.0929 22.0049 20.7884 22.1149C20.4839 22.225 20.2072 22.3863 19.9742 22.5896C19.7411 22.7929 19.5563 23.0343 19.4301 23.3C19.304 23.5657 19.2391 23.8504 19.2391 24.138H19.8366C19.8366 23.9189 19.8861 23.7019 19.9822 23.4995C20.0783 23.2971 20.2191 23.1131 20.3967 22.9582C20.5743 22.8033 20.7851 22.6804 21.0171 22.5966C21.2491 22.5127 21.4978 22.4696 21.7489 22.4696C22 22.4696 22.2487 22.5127 22.4807 22.5966C22.7127 22.6804 22.9235 22.8033 23.1011 22.9582C23.2786 23.1131 23.4195 23.2971 23.5156 23.4995C23.6117 23.7019 23.6612 23.9189 23.6612 24.138H24.2587ZM27.3822 31.3311C27.5084 31.0655 27.5733 30.7807 27.5733 30.4932H26.9758C26.9758 30.7123 26.9263 30.9292 26.8302 31.1316C26.7341 31.3341 26.5932 31.518 26.4157 31.6729C26.2381 31.8279 26.0273 31.9507 25.7953 32.0346C25.5633 32.1184 25.3146 32.1616 25.0635 32.1616C24.8124 32.1616 24.5637 32.1184 24.3317 32.0346C24.0997 31.9507 23.8889 31.8278 23.7113 31.6729C23.5337 31.518 23.3929 31.3341 23.2968 31.1316C23.2007 30.9292 23.1512 30.7123 23.1512 30.4932H22.5537C22.5537 30.7807 22.6186 31.0655 22.7448 31.3311C22.8709 31.5968 23.0558 31.8382 23.2888 32.0415C23.5219 32.2449 23.7985 32.4062 24.103 32.5162C24.4075 32.6263 24.7339 32.6829 25.0635 32.6829C25.3931 32.6829 25.7194 32.6263 26.0239 32.5162C26.3284 32.4062 26.6051 32.2449 26.8382 32.0415C27.0712 31.8382 27.2561 31.5968 27.3822 31.3311Z" fill="#D9D9D9"/>
</mask>
<g mask="url(#mask0_161_154)">
<rect x="39.6436" y="41.5081" width="31.6282" height="29.6924" rx="14.8462" transform="rotate(-171.02 39.6436 41.5081)" fill="url(#paint0_linear_161_154)"/>
</g>
<defs>
<linearGradient id="paint0_linear_161_154" x1="39.6436" y1="46.7731" x2="65.7026" y2="71.7885" gradientUnits="userSpaceOnUse">
<stop stop-color="#3E61C2"/>
<stop offset="0.270833" stop-color="#4687DE"/>
<stop offset="0.438057" stop-color="#51B1ED"/>
<stop offset="0.613153" stop-color="#66DCFB"/>
<stop offset="0.770833" stop-color="#81EDFF"/>
<stop offset="0.869792" stop-color="#94F9FF"/>
</linearGradient>
</defs>
</svg>
