<svg width="307" height="812" viewBox="0 0 307 812" fill="none" xmlns="http://www.w3.org/2000/svg">
<mask id="path-1-inside-1_196_1024" fill="white">
<path fill-rule="evenodd" clip-rule="evenodd" d="M350.796 49.4336C350.796 76.735 328.664 98.8672 301.362 98.8672C274.061 98.8672 251.929 76.735 251.929 49.4336C251.929 22.1322 274.061 0 301.362 0C328.664 0 350.796 22.1322 350.796 49.4336ZM421.636 551.534C471.669 522.358 510.142 475.523 528.51 419.572V430.278C528.51 432.285 530.136 433.911 532.143 433.911H598.63C600.637 433.911 602.263 432.285 602.263 430.278V259.322C602.263 257.315 600.637 255.688 598.63 255.688H532.143C530.136 255.688 528.51 257.315 528.51 259.322V270.403C497.181 174.971 407.364 106.058 301.452 106.058C194.809 106.058 104.484 175.925 73.7538 272.383V259.322C73.7538 257.315 72.1269 255.688 70.1201 255.688H3.63361C1.62682 255.688 0 257.315 0 259.322V430.278C0 432.285 1.62683 433.911 3.63362 433.911H70.1202C72.1269 433.911 73.7538 432.285 73.7538 430.278V417.591C91.8861 474.506 130.767 522.164 181.506 551.673C148.818 579.201 128.483 617.856 128.483 660.661C128.483 666.956 128.922 673.161 129.777 679.254H473.53C474.385 673.161 474.824 666.956 474.824 660.661C474.824 617.784 454.421 579.071 421.636 551.534ZM301.654 812C300.664 812 299.677 811.993 298.691 811.978H304.616C303.63 811.993 302.643 812 301.654 812Z"/>
</mask>
<path d="M421.636 551.534L421.132 550.67L419.905 551.386L420.993 552.3L421.636 551.534ZM528.51 419.572H529.51L527.559 419.26L528.51 419.572ZM528.51 270.403L527.559 270.715L529.51 270.403H528.51ZM73.7538 272.383H72.7538L74.7066 272.687L73.7538 272.383ZM73.7538 417.591L74.7066 417.288L72.7538 417.591H73.7538ZM181.506 551.673L182.151 552.438L183.237 551.523L182.009 550.808L181.506 551.673ZM129.777 679.254L128.786 679.393L128.907 680.254H129.777V679.254ZM473.53 679.254V680.254H474.4L474.521 679.393L473.53 679.254ZM298.691 811.978V810.978L298.676 812.978L298.691 811.978ZM304.616 811.978L304.631 812.978L304.616 810.978V811.978ZM301.362 99.8672C329.216 99.8672 351.796 77.2873 351.796 49.4336H349.796C349.796 76.1828 328.112 97.8672 301.362 97.8672V99.8672ZM250.929 49.4336C250.929 77.2873 273.509 99.8672 301.362 99.8672V97.8672C274.613 97.8672 252.929 76.1828 252.929 49.4336H250.929ZM301.362 -1C273.509 -1 250.929 21.5799 250.929 49.4336H252.929C252.929 22.6845 274.613 1 301.362 1V-1ZM351.796 49.4336C351.796 21.5799 329.216 -1 301.362 -1V1C328.112 1 349.796 22.6845 349.796 49.4336H351.796ZM422.139 552.398C472.381 523.101 511.014 476.071 529.46 419.883L527.559 419.26C509.269 474.975 470.957 521.616 421.132 550.67L422.139 552.398ZM527.51 419.572V430.278H529.51V419.572H527.51ZM527.51 430.278C527.51 432.837 529.584 434.911 532.143 434.911V432.911C530.689 432.911 529.51 431.732 529.51 430.278H527.51ZM532.143 434.911H598.63V432.911H532.143V434.911ZM598.63 434.911C601.189 434.911 603.263 432.837 603.263 430.278H601.263C601.263 431.732 600.084 432.911 598.63 432.911V434.911ZM603.263 430.278V259.322H601.263V430.278H603.263ZM603.263 259.322C603.263 256.763 601.189 254.688 598.63 254.688V256.688C600.084 256.688 601.263 257.867 601.263 259.322H603.263ZM598.63 254.688H532.143V256.688H598.63V254.688ZM532.143 254.688C529.584 254.688 527.51 256.763 527.51 259.322H529.51C529.51 257.867 530.689 256.688 532.143 256.688V254.688ZM527.51 259.322V270.403H529.51V259.322H527.51ZM529.46 270.091C498 174.26 407.809 105.058 301.452 105.058V107.058C406.919 107.058 496.361 175.681 527.559 270.715L529.46 270.091ZM301.452 105.058C194.361 105.058 103.659 175.219 72.801 272.08L74.7066 272.687C105.308 176.632 195.257 107.058 301.452 107.058V105.058ZM74.7538 272.383V259.322H72.7538V272.383H74.7538ZM74.7538 259.322C74.7538 256.763 72.6792 254.688 70.1201 254.688V256.688C71.5747 256.688 72.7538 257.867 72.7538 259.322H74.7538ZM70.1201 254.688H3.63361V256.688H70.1201V254.688ZM3.63361 254.688C1.07454 254.688 -1 256.763 -1 259.322H1C1 257.867 2.1791 256.688 3.63361 256.688V254.688ZM-1 259.322V430.278H1V259.322H-1ZM-1 430.278C-1 432.837 1.07455 434.911 3.63362 434.911V432.911C2.17911 432.911 1 431.732 1 430.278H-1ZM3.63362 434.911H70.1202V432.911H3.63362V434.911ZM70.1202 434.911C72.6792 434.911 74.7538 432.837 74.7538 430.278H72.7538C72.7538 431.732 71.5747 432.911 70.1202 432.911V434.911ZM74.7538 430.278V417.591H72.7538V430.278H74.7538ZM72.801 417.895C91.0097 475.05 130.053 522.905 181.004 552.537L182.009 550.808C131.481 521.422 92.7625 473.963 74.7066 417.288L72.801 417.895ZM180.862 550.908C147.978 578.601 127.483 617.524 127.483 660.661H129.483C129.483 618.188 149.658 579.801 182.151 552.438L180.862 550.908ZM127.483 660.661C127.483 667.003 127.926 673.254 128.786 679.393L130.767 679.115C129.919 673.068 129.483 666.909 129.483 660.661H127.483ZM129.777 680.254H473.53V678.254H129.777V680.254ZM474.521 679.393C475.381 673.254 475.824 667.003 475.824 660.661H473.824C473.824 666.909 473.388 673.068 472.54 679.115L474.521 679.393ZM475.824 660.661C475.824 617.452 455.26 578.47 422.279 550.768L420.993 552.3C453.581 579.672 473.824 618.116 473.824 660.661H475.824ZM298.676 812.978C299.667 812.993 300.659 813 301.654 813V811C300.669 811 299.686 810.993 298.706 810.978L298.676 812.978ZM304.616 810.978H298.691V812.978H304.616V810.978ZM301.654 813C302.648 813 303.64 812.993 304.631 812.978L304.601 810.978C303.621 810.993 302.638 811 301.654 811V813Z" fill="white" fill-opacity="0.2" mask="url(#path-1-inside-1_196_1024)"/>
</svg>
